<svg version="1.1" xmlns="http://www.w3.org/2000/svg" viewBox="0 0 802.75 698.52001953125" width="802.75" height="698.52001953125">
  <!-- svg-source:excalidraw -->
  
  <defs>
    <style class="style-fonts">
      @font-face {
        font-family: "Virgil";
        src: url("https://excalidraw.com/Virgil.woff2");
      }
      @font-face {
        font-family: "Cascadia";
        src: url("https://excalidraw.com/Cascadia.woff2");
      }
    </style>
  </defs>
  <g stroke-linecap="round" transform="translate(223.94921875 10) rotate(0 268.5 41)"><path d="M20.5 0 M20.5 0 C154.87 -1.36, 287.95 -1.81, 516.5 0 M20.5 0 C152.27 -1.37, 284.29 -1.67, 516.5 0 M516.5 0 C529.5 0.67, 537.19 6, 537 20.5 M516.5 0 C530.93 -1.91, 538 8.74, 537 20.5 M537 20.5 C538.39 36.71, 538.78 53.25, 537 61.5 M537 20.5 C536.68 33.6, 537.32 46.76, 537 61.5 M537 61.5 C535.94 75.38, 529.35 80.89, 516.5 82 M537 61.5 C535.3 75.01, 531.85 80.34, 516.5 82 M516.5 82 C332.4 80.83, 147.87 80.18, 20.5 82 M516.5 82 C414.64 82.38, 311.8 82.02, 20.5 82 M20.5 82 C6.51 80.65, -0.39 75.81, 0 61.5 M20.5 82 C5.41 81.28, -2.17 75.25, 0 61.5 M0 61.5 C-0.71 47.26, 1.68 36.64, 0 20.5 M0 61.5 C-0.23 49.22, -0.96 38.47, 0 20.5 M0 20.5 C-0.2 7.6, 8.28 1.33, 20.5 0 M0 20.5 C0.49 5.1, 4.92 1.39, 20.5 0" stroke="#000000" stroke-width="1" fill="none"></path></g><g transform="translate(258.07421875 27) rotate(0 234.375 24)"><text x="234.375" y="0" font-family="Cascadia, Segoe UI Emoji" font-size="20px" fill="#000000" text-anchor="middle" style="white-space: pre;" direction="ltr" dominant-baseline="text-before-edge">Register for Cloud Database Service and </text><text x="234.375" y="24" font-family="Cascadia, Segoe UI Emoji" font-size="20px" fill="#000000" text-anchor="middle" style="white-space: pre;" direction="ltr" dominant-baseline="text-before-edge">Obtain Connection Information</text></g><g stroke-linecap="round" transform="translate(249.87109375 235.765625) rotate(0 260.9765625 35.2109375)"><path d="M17.61 0 M17.61 0 C202.93 2.1, 390.99 1.45, 504.35 0 M504.35 0 C516.57 1.55, 522.68 9.69, 521.95 17.61 M521.95 17.61 C519.73 26.86, 518.66 30.75, 521.95 52.82 M521.95 52.82 C520.83 65.04, 517.79 66.56, 504.35 70.42 M504.35 70.42 C362.27 70.93, 217.33 72.27, 17.61 70.42 M17.61 70.42 C2.02 72.46, -0.64 63.05, 0 52.82 M0 52.82 C4.28 38.9, 0.69 21.62, 0 17.61 M0 17.61 C3.9 3.56, 7.08 2.3, 17.61 0" stroke="#000000" stroke-width="1.5" fill="none" stroke-dasharray="8 9"></path></g><g transform="translate(282.33203125 258.9765625) rotate(0 228.515625 12)"><text x="228.515625" y="0" font-family="Cascadia, Segoe UI Emoji" font-size="20px" fill="#000000" text-anchor="middle" style="white-space: pre;" direction="ltr" dominant-baseline="text-before-edge">myscale_cloud_mstg_laion-768-5m-ip.json</text></g><g mask="url(#mask-OBiI1_oVp37M3HndoiDnj)" stroke-linecap="round"><g stroke-opacity="0.6" fill-opacity="0.6" transform="translate(493.40403394568307 92.76953125) rotate(0 1.9863252141718704 71.19533731598875)"><path d="M-0.71 0.91 C-0.09 24.41, 3.92 118.48, 4.69 142.05 M1.11 0.34 C1.52 24.01, 3.58 116.85, 3.87 140.2" stroke="#000000" stroke-width="1" fill="none"></path></g><g stroke-opacity="0.6" fill-opacity="0.6" transform="translate(493.40403394568307 92.76953125) rotate(0 1.9863252141718704 71.19533731598875)"><path d="M-5.38 112.61 C-1.74 121.89, 2.8 131.91, 5.57 138.65 M-7.81 112.6 C-4.31 119.24, -1.34 126.48, 4.1 140.57" stroke="#000000" stroke-width="1" fill="none"></path></g><g stroke-opacity="0.6" fill-opacity="0.6" transform="translate(493.40403394568307 92.76953125) rotate(0 1.9863252141718704 71.19533731598875)"><path d="M15.14 112.24 C11.06 121.54, 7.89 131.69, 5.57 138.65 M12.7 112.23 C11.27 119.06, 9.32 126.38, 4.1 140.57" stroke="#000000" stroke-width="1" fill="none"></path></g></g><mask id="mask-OBiI1_oVp37M3HndoiDnj"><rect x="0" y="0" fill="#fff" width="597.8431211967393" height="334.30078125000006"></rect><rect x="396.0142025712112" y="135.93515624999998" fill="#000" width="199.21875" height="55.199999999999996" opacity="1"></rect></mask><g stroke-opacity="0.6" fill-opacity="0.6" transform="translate(396.0142025712113 135.93515624999998) rotate(0 99.37615658864377 28.029712315988775)"><text x="99.609375" y="0" font-family="Helvetica, Segoe UI Emoji" font-size="16px" fill="#000000" text-anchor="middle" style="white-space: pre;" direction="ltr" dominant-baseline="text-before-edge">Modify the configuration file </text><text x="99.609375" y="18.4" font-family="Helvetica, Segoe UI Emoji" font-size="16px" fill="#000000" text-anchor="middle" style="white-space: pre;" direction="ltr" dominant-baseline="text-before-edge">with your connection </text><text x="99.609375" y="36.8" font-family="Helvetica, Segoe UI Emoji" font-size="16px" fill="#000000" text-anchor="middle" style="white-space: pre;" direction="ltr" dominant-baseline="text-before-edge">information</text></g><g stroke-opacity="0.4" fill-opacity="0.4" transform="translate(10 275.61953125) rotate(0 117.1875 12)"><text x="117.1875" y="0" font-family="Cascadia, Segoe UI Emoji" font-size="20px" fill="#000000" text-anchor="middle" style="white-space: pre;" direction="ltr" dominant-baseline="text-before-edge">configuration files:</text></g><g stroke-linecap="round" transform="translate(273.53125 437.83203125) rotate(0 252.1796875 31.6015625)"><path d="M15.8 0 M15.8 0 C125.34 0.5, 235.35 0.85, 488.56 0 M15.8 0 C132.95 0.48, 249.59 0.13, 488.56 0 M488.56 0 C500.31 0.72, 504.22 3.37, 504.36 15.8 M488.56 0 C497.67 -1.26, 502.38 3.68, 504.36 15.8 M504.36 15.8 C502.99 24.23, 503.14 29.83, 504.36 47.4 M504.36 15.8 C503.93 25.48, 504.77 34.9, 504.36 47.4 M504.36 47.4 C502.63 59.51, 498.56 63.33, 488.56 63.2 M504.36 47.4 C503.98 57.22, 498.02 65.17, 488.56 63.2 M488.56 63.2 C360.31 64, 231.86 63.56, 15.8 63.2 M488.56 63.2 C312.86 61.32, 136.99 62.09, 15.8 63.2 M15.8 63.2 C7.1 61.75, -1.73 57.78, 0 47.4 M15.8 63.2 C5.16 62.34, 0.72 55.8, 0 47.4 M0 47.4 C1.4 37.12, 1 22.62, 0 15.8 M0 47.4 C-0.31 36.84, -0.43 24.74, 0 15.8 M0 15.8 C-1.94 5.58, 4.67 -1.86, 15.8 0 M0 15.8 C0.22 6.41, 7.45 1.56, 15.8 0" stroke="#000000" stroke-width="1" fill="none"></path></g><g transform="translate(285.4765625 457.43359375) rotate(0 240.234375 12)"><text x="240.234375" y="0" font-family="Cascadia, Segoe UI Emoji" font-size="20px" fill="#000000" text-anchor="middle" style="white-space: pre;" direction="ltr" dominant-baseline="text-before-edge">Execute 'python3 run.py' to Run Your Test</text></g><g mask="url(#mask-Z250X0suPZKgWfYJLPLAV)" stroke-linecap="round"><g stroke-opacity="0.6" fill-opacity="0.6" transform="translate(500.52796378957123 308.53125) rotate(0 -0.22608211908254816 61.97818630028985)"><path d="M0.7 0.47 C0.58 21.35, -0.19 103.71, -0.63 124.28 M-0.39 -0.32 C-0.61 20.32, -0.72 102.31, -1.15 122.67" stroke="#000000" stroke-width="1" fill="none"></path></g><g stroke-opacity="0.6" fill-opacity="0.6" transform="translate(500.52796378957123 308.53125) rotate(0 -0.22608211908254816 61.97818630028985)"><path d="M-10.35 95.73 C-6.65 102.21, -4.19 110.4, -1.65 120.85 M-10.44 93.56 C-9.4 101.85, -6.14 108.44, -0.66 122.55" stroke="#000000" stroke-width="1" fill="none"></path></g><g stroke-opacity="0.6" fill-opacity="0.6" transform="translate(500.52796378957123 308.53125) rotate(0 -0.22608211908254816 61.97818630028985)"><path d="M10.18 95.93 C7.53 102.47, 3.65 110.6, -1.65 120.85 M10.08 93.76 C5.67 102.13, 3.46 108.67, -0.66 122.55" stroke="#000000" stroke-width="1" fill="none"></path></g></g><mask id="mask-Z250X0suPZKgWfYJLPLAV"><rect x="0" y="0" fill="#fff" width="601.9622660622049" height="531.83203125"></rect><rect x="391.8069064032545" y="342.581640625" fill="#000" width="216.0078125" height="55.199999999999996" opacity="1"></rect></mask><g stroke-opacity="0.6" fill-opacity="0.6" transform="translate(391.8069064032545 342.581640625) rotate(0 108.49497526723428 27.92779567528987)"><text x="108.00390625" y="0" font-family="Helvetica, Segoe UI Emoji" font-size="16px" fill="#000000" text-anchor="middle" style="white-space: pre;" direction="ltr" dominant-baseline="text-before-edge">Save the configuration file in </text><text x="108.00390625" y="18.4" font-family="Helvetica, Segoe UI Emoji" font-size="16px" fill="#000000" text-anchor="middle" style="white-space: pre;" direction="ltr" dominant-baseline="text-before-edge">the 'experiments/configuration'</text><text x="108.00390625" y="36.8" font-family="Helvetica, Segoe UI Emoji" font-size="16px" fill="#000000" text-anchor="middle" style="white-space: pre;" direction="ltr" dominant-baseline="text-before-edge">directory</text></g><g stroke-linecap="round" transform="translate(273.75 615.52001953125) rotate(0 259.5 36.5)"><path d="M18.25 0 M18.25 0 C151.4 -0.1, 284.93 0.27, 500.75 0 M18.25 0 C134.57 0.88, 251.87 1.07, 500.75 0 M500.75 0 C514.43 1.53, 517.11 6.45, 519 18.25 M500.75 0 C514.25 2.14, 519.28 3.86, 519 18.25 M519 18.25 C520.93 33.71, 519 44.92, 519 54.75 M519 18.25 C518.39 29.23, 519.25 39.82, 519 54.75 M519 54.75 C519.79 68.81, 511.24 72.66, 500.75 73 M519 54.75 C516.85 66.41, 511.9 71.85, 500.75 73 M500.75 73 C396.52 72.23, 292.59 73.05, 18.25 73 M500.75 73 C392.41 72.02, 284.45 71.63, 18.25 73 M18.25 73 C5.56 74.85, 0.98 68.45, 0 54.75 M18.25 73 C6.69 71.19, 0.26 66.27, 0 54.75 M0 54.75 C0.2 38.73, -0.11 25.29, 0 18.25 M0 54.75 C-0.55 39.47, 0.84 25.61, 0 18.25 M0 18.25 C1.18 7.98, 6.26 1.16, 18.25 0 M0 18.25 C1.78 8.08, 6.64 0.13, 18.25 0" stroke="#000000" stroke-width="1" fill="none"></path></g><g transform="translate(316.453125 628.02001953125) rotate(0 216.796875 24)"><text x="216.796875" y="0" font-family="Cascadia, Segoe UI Emoji" font-size="20px" fill="#000000" text-anchor="middle" style="white-space: pre;" direction="ltr" dominant-baseline="text-before-edge">You Can View the Test Results in the </text><text x="216.796875" y="24" font-family="Cascadia, Segoe UI Emoji" font-size="20px" fill="#000000" text-anchor="middle" style="white-space: pre;" direction="ltr" dominant-baseline="text-before-edge">'results' Directory</text></g><g mask="url(#mask-FHD1bi1UyZFQ8BPynw9WT)" stroke-linecap="round"><g stroke-opacity="0.6" fill-opacity="0.6" transform="translate(506.6300176119996 502.4461114717342) rotate(0 0.04555613748209453 55.46864013394327)"><path d="M-0.83 1.05 C-0.93 19.42, 0.25 91.2, 0.43 109.32 M0.93 0.55 C0.58 19.13, -0.31 91.99, -0.58 110.38" stroke="#000000" stroke-width="1" fill="none"></path></g><g stroke-opacity="0.6" fill-opacity="0.6" transform="translate(506.6300176119996 502.4461114717342) rotate(0 0.04555613748209453 55.46864013394327)"><path d="M-8.71 81.88 C-8.39 92.48, -3.81 103.92, -2.08 111.54 M-9.69 81.79 C-7.1 89.87, -4.98 97.53, -0.44 110.52" stroke="#000000" stroke-width="1" fill="none"></path></g><g stroke-opacity="0.6" fill-opacity="0.6" transform="translate(506.6300176119996 502.4461114717342) rotate(0 0.04555613748209453 55.46864013394327)"><path d="M11.81 82.15 C4.27 92.5, 0.99 103.84, -2.08 111.54 M10.83 82.07 C7.84 90.02, 4.38 97.61, -0.44 110.52" stroke="#000000" stroke-width="1" fill="none"></path></g></g><mask id="mask-FHD1bi1UyZFQ8BPynw9WT"><rect x="0" y="0" fill="#fff" width="607.1707303216066" height="712.6687428036582"></rect><rect x="407.59568646680304" y="548.357427137696" fill="#000" width="198.609375" height="18.4" opacity="1"></rect></mask><g stroke-opacity="0.6" fill-opacity="0.6" transform="translate(407.59568646680304 548.357427137696) rotate(0 99.07988728267867 9.557324467981289)"><text x="99.3046875" y="0" font-family="Helvetica, Segoe UI Emoji" font-size="16px" fill="#000000" text-anchor="middle" style="white-space: pre;" direction="ltr" dominant-baseline="text-before-edge">Wait for the test to complete</text></g><g stroke-opacity="0.6" fill-opacity="0.6" transform="translate(163.0927734375 40.24169921875) rotate(0 28.9111328125 11.5)"><text x="28.9111328125" y="0" font-family="Helvetica, Segoe UI Emoji" font-size="20px" fill="#000000" text-anchor="middle" style="white-space: pre;" direction="ltr" dominant-baseline="text-before-edge">Step1.</text></g><g stroke-opacity="0.6" fill-opacity="0.6" transform="translate(184.5810546875 233.46826171875) rotate(0 28.9111328125 11.5)"><text x="28.9111328125" y="0" font-family="Helvetica, Segoe UI Emoji" font-size="20px" fill="#000000" text-anchor="middle" style="white-space: pre;" direction="ltr" dominant-baseline="text-before-edge">Step2.</text></g><g stroke-opacity="0.6" fill-opacity="0.6" transform="translate(203.6044921875 456.99951171875) rotate(0 28.9111328125 11.5)"><text x="28.9111328125" y="0" font-family="Helvetica, Segoe UI Emoji" font-size="20px" fill="#000000" text-anchor="middle" style="white-space: pre;" direction="ltr" dominant-baseline="text-before-edge">Step3.</text></g><g stroke-opacity="0.6" fill-opacity="0.6" transform="translate(206.5966796875 639.55029296875) rotate(0 28.9111328125 11.5)"><text x="28.9111328125" y="0" font-family="Helvetica, Segoe UI Emoji" font-size="20px" fill="#000000" text-anchor="middle" style="white-space: pre;" direction="ltr" dominant-baseline="text-before-edge">Step4.</text></g></svg>